<?xml version="1.0" standalone="no"?>
<!DOCTYPE svg PUBLIC "-//W3C//DTD SVG 20010904//EN"
 "http://www.w3.org/TR/2001/REC-SVG-20010904/DTD/svg10.dtd">
<svg version="1.0" xmlns="http://www.w3.org/2000/svg"
 width="1024.000000pt" height="1024.000000pt" viewBox="0 0 1024.000000 1024.000000"
 preserveAspectRatio="xMidYMid meet">
<metadata>
Created by potrace 1.15, written by Peter Selinger 2001-2017
</metadata>
<g transform="translate(0.000000,1024.000000) scale(0.100000,-0.100000)"
fill="#000000" stroke="none">
<path d="M6120 9195 c0 -11 -11 -15 -40 -15 -29 0 -40 -4 -40 -15 0 -11 -11
-15 -40 -15 -22 0 -40 -4 -40 -10 0 -5 -18 -10 -40 -10 -29 0 -40 -4 -40 -15
0 -10 -11 -15 -35 -15 -24 0 -35 -5 -35 -15 0 -10 -10 -15 -30 -15 -16 0 -30
-4 -30 -10 0 -5 -16 -10 -35 -10 -24 0 -35 -5 -35 -15 0 -9 -10 -15 -26 -15
-26 0 -54 -20 -54 -39 0 -6 -18 -11 -40 -11 -29 0 -40 -4 -40 -15 0 -8 -5 -15
-11 -15 -14 0 -39 -25 -39 -39 0 -6 -11 -11 -25 -11 -14 0 -25 -4 -25 -10 0
-5 -7 -10 -15 -10 -8 0 -15 -7 -15 -15 0 -8 -7 -15 -15 -15 -8 0 -15 -5 -15
-11 0 -14 -25 -39 -39 -39 -6 0 -11 -5 -11 -11 0 -14 -25 -39 -39 -39 -6 0
-11 -7 -11 -15 0 -8 -7 -15 -15 -15 -8 0 -15 -7 -15 -15 0 -8 -4 -15 -10 -15
-5 0 -10 -11 -10 -25 0 -14 -5 -25 -11 -25 -19 0 -39 -28 -39 -54 0 -16 -6
-26 -15 -26 -9 0 -15 -9 -15 -25 0 -16 -6 -25 -15 -25 -12 0 -15 -14 -15 -65
0 -37 -4 -65 -10 -65 -5 0 -10 -18 -10 -40 0 -22 5 -40 10 -40 6 0 10 -4 10
-10 0 -5 -16 -10 -35 -10 -24 0 -35 -5 -35 -15 0 -13 -26 -15 -170 -15 -144 0
-170 -2 -170 -15 0 -13 -21 -15 -130 -15 -80 0 -130 -4 -130 -10 0 -6 -28 -10
-65 -10 -51 0 -65 -3 -65 -15 0 -12 -14 -15 -65 -15 -37 0 -65 -4 -65 -10 0
-5 -25 -10 -55 -10 -42 0 -55 -3 -55 -15 0 -11 -11 -15 -40 -15 -29 0 -40 -4
-40 -15 0 -10 -11 -15 -35 -15 -19 0 -35 -4 -35 -10 0 -5 -13 -10 -30 -10 -20
0 -30 -5 -30 -15 0 -10 -11 -15 -35 -15 -19 0 -35 -4 -35 -10 0 -5 -7 -10 -15
-10 -8 0 -15 -7 -15 -15 0 -8 -7 -15 -15 -15 -8 0 -15 -5 -15 -11 0 -14 -25
-39 -39 -39 -6 0 -11 -7 -11 -15 0 -9 -9 -15 -25 -15 -14 0 -25 -4 -25 -10 0
-5 -11 -10 -25 -10 -16 0 -25 -6 -25 -15 0 -8 -7 -15 -15 -15 -8 0 -15 -7 -15
-15 0 -9 -9 -15 -25 -15 -14 0 -25 -4 -25 -10 0 -5 -11 -10 -25 -10 -16 0 -25
-6 -25 -15 0 -8 -7 -15 -15 -15 -8 0 -15 -4 -15 -10 0 -5 -11 -10 -25 -10 -16
0 -25 -6 -25 -15 0 -8 -7 -15 -15 -15 -8 0 -15 -7 -15 -15 0 -9 -9 -15 -21
-15 -22 0 -49 -22 -49 -39 0 -6 -12 -11 -26 -11 -26 0 -54 -20 -54 -39 0 -6
-11 -11 -25 -11 -16 0 -25 -6 -25 -15 0 -8 -7 -15 -15 -15 -8 0 -15 -4 -15
-10 0 -5 -7 -10 -15 -10 -8 0 -15 -7 -15 -15 0 -9 -9 -15 -21 -15 -22 0 -49
-22 -49 -39 0 -6 -7 -11 -15 -11 -8 0 -15 -7 -15 -15 0 -8 -7 -15 -15 -15 -8
0 -15 -4 -15 -10 0 -5 -11 -10 -25 -10 -14 0 -25 -5 -25 -11 0 -14 -25 -39
-39 -39 -6 0 -11 -7 -11 -15 0 -8 -7 -15 -15 -15 -8 0 -15 -5 -15 -11 0 -14
-25 -39 -39 -39 -6 0 -11 -7 -11 -15 0 -8 -4 -15 -10 -15 -5 0 -10 -7 -10 -15
0 -8 -7 -15 -15 -15 -8 0 -15 -4 -15 -10 0 -5 -7 -10 -15 -10 -8 0 -15 -5 -15
-11 0 -14 -25 -39 -39 -39 -6 0 -11 -7 -11 -15 0 -8 -4 -15 -10 -15 -5 0 -10
-11 -10 -25 0 -16 -6 -25 -15 -25 -9 0 -15 -9 -15 -25 0 -16 -6 -25 -15 -25
-11 0 -15 -11 -15 -40 0 -22 -4 -40 -10 -40 -5 0 -10 -18 -10 -40 0 -29 -4
-40 -15 -40 -11 0 -15 -12 -15 -50 0 -27 -4 -50 -10 -50 -5 0 -10 -25 -10 -55
0 -42 -3 -55 -15 -55 -12 0 -15 -14 -15 -65 0 -51 -3 -65 -15 -65 -12 0 -15
-15 -15 -75 0 -43 -4 -75 -10 -75 -5 0 -10 -18 -10 -40 0 -29 -4 -40 -15 -40
-9 0 -15 9 -15 25 0 14 -4 25 -10 25 -5 0 -10 11 -10 25 0 25 -1 25 -80 25
-47 0 -80 -4 -80 -10 0 -5 -7 -10 -15 -10 -8 0 -15 -7 -15 -15 0 -8 -4 -15
-10 -15 -5 0 -10 -7 -10 -15 0 -8 -7 -15 -15 -15 -9 0 -15 -9 -15 -25 0 -14
-4 -25 -10 -25 -5 0 -10 -7 -10 -15 0 -8 -7 -15 -15 -15 -8 0 -15 -4 -15 -10
0 -5 -7 -10 -15 -10 -9 0 -15 -9 -15 -25 0 -14 -4 -25 -10 -25 -5 0 -10 -13
-10 -30 0 -20 -5 -30 -15 -30 -9 0 -15 -9 -15 -25 0 -14 -4 -25 -10 -25 -5 0
-10 -22 -10 -50 0 -38 -4 -50 -15 -50 -12 0 -15 -16 -15 -80 0 -64 3 -80 15
-80 11 0 15 -12 15 -50 0 -27 5 -50 10 -50 6 0 10 -18 10 -40 0 -29 4 -40 15
-40 8 0 15 -7 15 -15 0 -8 5 -15 10 -15 6 0 10 -11 10 -25 0 -16 6 -25 15 -25
9 0 15 -9 15 -25 0 -16 6 -25 15 -25 8 0 15 -7 15 -15 0 -10 -10 -15 -30 -15
-16 0 -30 -4 -30 -10 0 -5 -11 -10 -25 -10 -14 0 -25 -5 -25 -11 0 -6 -6 -17
-14 -25 -8 -8 -19 -14 -25 -14 -7 0 -11 -37 -11 -105 0 -87 3 -105 15 -105 11
0 15 -11 15 -40 0 -22 5 -40 10 -40 6 0 10 -18 10 -40 0 -29 4 -40 15 -40 11
0 15 -11 15 -40 0 -22 5 -40 10 -40 6 0 10 -11 10 -25 0 -16 6 -25 15 -25 9 0
15 -9 15 -25 0 -16 6 -25 15 -25 9 0 15 -9 15 -25 0 -14 5 -25 10 -25 6 0 10
-13 10 -30 0 -16 5 -30 11 -30 14 0 39 -25 39 -39 0 -6 12 -11 26 -11 26 0 54
-20 54 -39 0 -6 7 -11 15 -11 11 0 15 -12 15 -50 0 -27 5 -50 10 -50 6 0 10
-25 10 -55 0 -42 3 -55 15 -55 11 0 15 -12 15 -50 0 -38 -4 -50 -15 -50 -8 0
-15 -7 -15 -15 0 -8 -4 -15 -10 -15 -5 0 -10 -11 -10 -25 0 -16 -6 -25 -15
-25 -8 0 -15 -5 -15 -11 0 -6 -6 -17 -14 -25 -8 -8 -19 -14 -25 -14 -6 0 -11
-7 -11 -15 0 -8 -7 -15 -15 -15 -8 0 -15 -5 -15 -11 0 -6 -6 -17 -14 -25 -8
-8 -19 -14 -25 -14 -6 0 -11 -7 -11 -15 0 -8 -4 -15 -10 -15 -5 0 -10 -11 -10
-25 0 -16 -6 -25 -15 -25 -8 0 -15 -7 -15 -15 0 -8 -7 -15 -15 -15 -9 0 -15
-9 -15 -21 0 -22 -22 -49 -39 -49 -6 0 -11 -13 -11 -30 0 -16 -4 -30 -10 -30
-5 0 -10 -11 -10 -25 0 -16 -6 -25 -15 -25 -9 0 -15 -9 -15 -25 0 -16 -6 -25
-15 -25 -11 0 -15 -11 -15 -40 0 -22 -4 -40 -10 -40 -5 0 -10 -18 -10 -40 0
-29 -4 -40 -15 -40 -10 0 -15 -11 -15 -35 0 -24 -5 -35 -15 -35 -13 0 -15 -26
-15 -170 0 -144 2 -170 15 -170 12 0 15 -13 15 -55 0 -42 3 -55 15 -55 11 0
15 -11 15 -40 0 -22 5 -40 10 -40 6 0 10 -11 10 -25 0 -16 6 -25 15 -25 8 0
15 -4 15 -10 0 -5 7 -10 15 -10 8 0 15 -7 15 -15 0 -8 5 -15 10 -15 6 0 10 -7
10 -15 0 -9 9 -15 25 -15 14 0 25 -4 25 -10 0 -5 14 -10 30 -10 20 0 30 -5 30
-15 0 -11 12 -15 50 -15 28 0 50 -4 50 -10 0 -5 11 -10 25 -10 16 0 25 -6 25
-15 0 -9 9 -15 25 -15 16 0 25 -6 25 -15 0 -8 7 -15 15 -15 8 0 15 -4 15 -10
0 -5 11 -10 25 -10 16 0 25 -6 25 -15 0 -11 11 -15 40 -15 22 0 40 -4 40 -10
0 -5 11 -10 25 -10 16 0 25 -6 25 -15 0 -11 11 -15 40 -15 29 0 40 -4 40 -15
0 -12 14 -15 65 -15 37 0 65 -4 65 -10 0 -6 42 -10 105 -10 63 0 105 4 105 10
0 6 18 10 40 10 29 0 40 4 40 15 0 8 5 15 10 15 6 0 10 7 10 15 0 8 5 15 11
15 17 0 39 27 39 49 0 12 6 21 15 21 8 0 15 7 15 15 0 8 7 15 15 15 9 0 15 9
15 25 0 14 5 25 10 25 6 0 10 7 10 15 0 8 7 15 15 15 9 0 15 9 15 25 0 14 5
25 10 25 6 0 10 7 10 15 0 8 7 15 15 15 8 0 15 5 15 10 0 6 7 10 15 10 8 0 15
5 15 11 0 14 25 39 39 39 6 0 11 7 11 15 0 8 5 15 10 15 6 0 10 -18 10 -40 0
-22 -4 -40 -10 -40 -5 0 -10 -18 -10 -40 0 -29 -4 -40 -15 -40 -12 0 -15 -15
-15 -75 0 -43 -4 -75 -10 -75 -6 0 -10 -55 -10 -145 0 -90 4 -145 10 -145 6 0
10 -22 10 -50 0 -38 4 -50 15 -50 10 0 15 -10 15 -30 0 -16 5 -30 12 -30 6 0
9 -2 7 -5 -3 -2 -108 -16 -234 -30 -729 -82 -1255 -196 -1540 -335 -156 -75
-215 -136 -215 -220 0 -84 59 -145 215 -220 423 -206 1323 -349 2645 -422 322
-18 1808 -18 2130 0 780 43 1333 101 1840 193 547 99 936 246 1005 380 19 36
19 102 0 138 -54 105 -299 217 -675 310 -337 83 -874 164 -1362 207 -74 6 -78
8 -78 31 0 25 21 53 39 53 6 0 11 18 11 40 0 22 5 40 10 40 6 0 10 47 10 120
0 100 3 120 15 120 12 0 15 19 15 115 l0 115 105 0 c87 0 105 3 105 15 0 11
11 15 40 15 22 0 40 5 40 10 0 6 11 10 25 10 16 0 25 6 25 15 0 12 17 15 90
15 53 0 90 4 90 10 0 6 23 10 50 10 38 0 50 4 50 15 0 11 11 15 40 15 29 0 40
4 40 15 0 11 11 15 40 15 22 0 40 5 40 10 0 6 11 10 25 10 16 0 25 6 25 15 0
11 11 15 40 15 22 0 40 5 40 10 0 6 11 10 25 10 16 0 25 6 25 15 0 8 7 15 15
15 8 0 15 7 15 15 0 9 9 15 25 15 14 0 25 5 25 10 0 6 11 10 25 10 20 0 25 5
25 25 0 20 5 25 25 25 16 0 25 6 25 15 0 8 7 15 15 15 8 0 15 7 15 15 0 8 5
15 11 15 21 0 39 29 39 64 0 25 4 36 15 36 9 0 15 9 15 25 0 14 5 25 10 25 6
0 10 68 10 185 0 117 -4 185 -10 185 -6 0 -10 28 -10 65 0 51 -3 65 -15 65 -9
0 -15 9 -15 25 0 20 -5 25 -25 25 -23 0 -25 3 -25 50 0 38 4 50 15 50 10 0 15
10 15 30 0 17 5 30 10 30 6 0 10 16 10 35 0 24 5 35 15 35 12 0 15 18 15 105
0 87 -3 105 -15 105 -9 0 -15 10 -15 26 0 33 -21 54 -54 54 -16 0 -26 6 -26
15 0 9 -9 15 -25 15 -14 0 -25 5 -25 10 0 6 -22 10 -50 10 -38 0 -50 4 -50 15
0 9 -9 15 -25 15 -16 0 -25 6 -25 15 0 8 -7 15 -15 15 -9 0 -15 9 -15 25 0 16
-6 25 -15 25 -9 0 -15 9 -15 25 0 14 -4 25 -10 25 -5 0 -10 7 -10 15 0 8 -7
15 -15 15 -9 0 -15 9 -15 25 0 20 -5 25 -25 25 -14 0 -25 5 -25 10 0 6 -7 10
-15 10 -8 0 -15 7 -15 15 0 8 -4 15 -10 15 -5 0 -10 7 -10 15 0 9 -9 15 -25
15 -20 0 -25 5 -25 25 0 21 -5 25 -30 25 -25 0 -30 4 -30 25 0 20 -5 25 -25
25 -20 0 -25 5 -25 25 0 20 -5 25 -25 25 -20 0 -25 5 -25 25 0 20 -5 25 -25
25 -16 0 -25 6 -25 15 0 8 -7 15 -15 15 -8 0 -15 5 -15 11 0 14 -25 39 -39 39
-6 0 -11 7 -11 15 0 9 -9 15 -25 15 -14 0 -25 5 -25 10 0 6 -7 10 -15 10 -8 0
-15 7 -15 15 0 8 -4 15 -10 15 -5 0 -10 7 -10 15 0 10 -10 15 -30 15 -16 0
-30 5 -30 10 0 6 -11 10 -25 10 -16 0 -25 6 -25 15 0 9 -9 15 -25 15 -16 0
-25 6 -25 15 0 9 -9 15 -25 15 -14 0 -25 5 -25 10 0 6 -11 10 -25 10 -16 0
-25 6 -25 15 0 11 -11 15 -40 15 -22 0 -40 5 -40 10 0 6 -7 10 -15 10 -10 0
-15 10 -15 30 0 17 -4 30 -10 30 -5 0 -10 16 -10 35 0 24 -5 35 -15 35 -10 0
-15 10 -15 30 0 20 -5 30 -15 30 -9 0 -15 9 -15 25 0 14 -4 25 -10 25 -5 0
-10 11 -10 25 0 20 5 25 25 25 16 0 25 6 25 15 0 8 7 15 15 15 8 0 15 5 15 10
0 6 11 10 25 10 14 0 25 5 25 11 0 19 28 39 54 39 16 0 26 6 26 15 0 8 5 15
10 15 6 0 10 7 10 15 0 8 7 15 15 15 8 0 15 5 15 10 0 6 11 10 25 10 16 0 25
6 25 15 0 8 5 15 11 15 14 0 39 25 39 39 0 6 11 11 25 11 16 0 25 6 25 15 0 8
7 15 15 15 8 0 15 5 15 10 0 6 7 10 15 10 8 0 15 7 15 15 0 9 9 15 25 15 20 0
25 5 25 25 0 14 5 25 10 25 6 0 10 32 10 76 0 81 -11 104 -49 104 -12 0 -21 6
-21 15 0 12 -13 15 -55 15 -42 0 -55 3 -55 15 0 12 -14 15 -65 15 -37 0 -65 4
-65 10 0 6 -118 10 -335 10 l-335 0 0 55 c0 42 -3 55 -15 55 -12 0 -15 14 -15
65 0 51 -3 65 -15 65 -12 0 -15 15 -15 75 0 43 -4 75 -10 75 -5 0 -10 25 -10
55 0 42 -3 55 -15 55 -12 0 -15 14 -15 65 0 37 -4 65 -10 65 -5 0 -10 16 -10
35 0 24 -5 35 -15 35 -11 0 -15 11 -15 40 0 29 -4 40 -15 40 -9 0 -15 9 -15
25 0 14 -4 25 -10 25 -5 0 -10 14 -10 30 0 20 -5 30 -15 30 -9 0 -15 9 -15 25
0 14 -4 25 -10 25 -5 0 -10 7 -10 15 0 8 -7 15 -15 15 -8 0 -15 5 -15 10 0 6
-7 10 -15 10 -8 0 -15 7 -15 15 0 8 -4 15 -10 15 -5 0 -10 11 -10 25 0 16 -6
25 -15 25 -11 0 -15 11 -15 40 0 29 -4 40 -15 40 -11 0 -15 12 -15 50 0 28 -4
50 -10 50 -5 0 -10 11 -10 25 0 16 -6 25 -15 25 -11 0 -15 11 -15 40 0 22 -4
40 -10 40 -5 0 -10 7 -10 15 0 8 -7 15 -15 15 -11 0 -15 11 -15 40 0 22 -5 40
-11 40 -17 0 -39 27 -39 49 0 12 -6 21 -15 21 -8 0 -15 7 -15 15 0 8 -4 15
-10 15 -5 0 -10 7 -10 15 0 8 -7 15 -15 15 -8 0 -15 5 -15 10 0 6 -7 10 -15
10 -8 0 -15 5 -15 11 0 17 -27 39 -49 39 -12 0 -21 6 -21 15 0 8 -7 15 -15 15
-8 0 -15 7 -15 15 0 12 19 15 115 15 70 0 115 4 115 10 0 6 33 10 80 10 64 0
80 3 80 15 0 11 11 15 40 15 22 0 40 5 40 10 0 6 18 10 40 10 29 0 40 4 40 15
0 11 11 15 40 15 29 0 40 4 40 15 0 10 11 15 35 15 19 0 35 5 35 10 0 6 14 10
30 10 20 0 30 5 30 15 0 10 11 15 35 15 24 0 35 5 35 15 0 11 11 15 40 15 22
0 40 5 40 10 0 6 18 10 40 10 29 0 40 4 40 15 0 9 9 15 25 15 14 0 25 5 25 10
0 6 7 10 15 10 8 0 15 7 15 15 0 8 5 15 10 15 6 0 10 37 10 90 0 53 -4 90 -10
90 -5 0 -10 7 -10 15 0 8 -5 15 -11 15 -14 0 -39 25 -39 39 0 6 -13 11 -30 11
-20 0 -30 5 -30 15 0 9 -9 15 -25 15 -14 0 -25 5 -25 10 0 6 -18 10 -40 10
-29 0 -40 4 -40 15 0 9 -9 15 -25 15 -14 0 -25 5 -25 10 0 6 -22 10 -50 10
-38 0 -50 4 -50 15 0 12 -14 15 -65 15 -51 0 -65 3 -65 15 0 11 -11 15 -40 15
-22 0 -40 5 -40 10 0 6 7 10 15 10 9 0 15 9 15 25 0 14 5 25 10 25 6 0 10 7
10 15 0 8 7 15 15 15 11 0 15 11 15 40 0 22 5 40 10 40 6 0 10 18 10 40 0 22
-4 40 -10 40 -5 0 -10 18 -10 40 l0 40 -105 0 c-87 0 -105 -3 -105 -15z
m-2290 -1460 c0 -12 14 -15 65 -15 51 0 65 -3 65 -15 0 -12 19 -15 115 -15 96
0 115 3 115 15 0 13 20 15 120 15 100 0 120 3 120 15 0 11 12 15 50 15 38 0
50 -4 50 -15 0 -8 7 -15 15 -15 11 0 15 -11 15 -40 0 -22 5 -40 10 -40 6 0 10
-11 10 -25 0 -16 6 -25 15 -25 8 0 15 -7 15 -15 0 -12 17 -15 90 -15 73 0 90
3 90 15 0 9 9 15 25 15 16 0 25 6 25 15 0 10 10 15 30 15 17 0 30 5 30 10 0 6
11 10 25 10 16 0 25 6 25 15 0 11 11 15 40 15 22 0 40 5 40 10 0 6 32 10 75
10 43 0 75 -4 75 -10 0 -5 11 -10 25 -10 16 0 25 -6 25 -15 0 -11 11 -15 40
-15 22 0 40 -4 40 -10 0 -5 11 -10 25 -10 16 0 25 -6 25 -15 0 -11 11 -15 40
-15 29 0 40 -4 40 -15 0 -9 9 -15 25 -15 14 0 25 -4 25 -10 0 -5 18 -10 40
-10 29 0 40 -4 40 -15 0 -9 9 -15 25 -15 14 0 25 -4 25 -10 0 -5 14 -10 30
-10 20 0 30 -5 30 -15 0 -9 9 -15 25 -15 16 0 25 -6 25 -15 0 -9 9 -15 25 -15
14 0 25 -4 25 -10 0 -5 11 -10 25 -10 16 0 25 -6 25 -15 0 -9 9 -15 25 -15 14
0 25 -4 25 -10 0 -5 18 -10 40 -10 29 0 40 -4 40 -15 0 -9 9 -15 25 -15 16 0
25 -6 25 -15 0 -8 7 -15 15 -15 8 0 15 -4 15 -10 0 -5 7 -10 15 -10 8 0 15 -7
15 -15 0 -8 5 -15 10 -15 6 0 10 -7 10 -15 0 -8 5 -15 11 -15 14 0 39 -25 39
-39 0 -6 -4 -11 -10 -11 -5 0 -10 7 -10 15 0 9 -9 15 -25 15 -14 0 -25 5 -25
10 0 6 -12 10 -26 10 -26 0 -54 -20 -54 -39 0 -6 -5 -11 -11 -11 -23 0 -39
-30 -39 -75 0 -45 16 -75 39 -75 6 0 11 -7 11 -15 0 -11 11 -15 40 -15 29 0
40 -4 40 -15 0 -9 9 -15 25 -15 16 0 25 6 25 15 0 9 9 15 25 15 23 0 25 3 25
50 0 38 4 50 15 50 10 0 15 -11 15 -35 0 -19 5 -35 10 -35 6 0 10 -18 10 -40
0 -29 4 -40 15 -40 12 0 15 -13 15 -55 0 -42 3 -55 15 -55 12 0 15 -15 15 -75
0 -43 4 -75 10 -75 6 0 10 -42 10 -105 0 -63 -4 -105 -10 -105 -5 0 -10 -11
-10 -25 0 -16 -6 -25 -15 -25 -9 0 -15 -9 -15 -25 0 -16 -6 -25 -15 -25 -8 0
-15 -7 -15 -15 0 -11 -11 -15 -40 -15 -29 0 -40 -4 -40 -15 0 -11 -12 -15 -50
-15 -27 0 -50 -4 -50 -10 0 -5 -18 -10 -40 -10 -29 0 -40 -4 -40 -15 0 -11
-11 -15 -40 -15 -29 0 -40 -4 -40 -15 0 -9 -9 -15 -25 -15 -14 0 -25 -4 -25
-10 0 -5 -11 -10 -25 -10 -16 0 -25 -6 -25 -15 0 -9 -9 -15 -25 -15 -14 0 -25
-4 -25 -10 0 -5 -11 -10 -25 -10 -16 0 -25 -6 -25 -15 0 -8 -7 -15 -15 -15
-12 0 -15 -14 -15 -65 0 -51 3 -65 15 -65 8 0 15 -7 15 -15 0 -11 12 -15 50
-15 38 0 50 4 50 15 0 9 9 15 25 15 16 0 25 6 25 15 0 11 11 15 40 15 22 0 40
5 40 10 0 6 7 10 15 10 8 0 15 7 15 15 0 11 12 15 50 15 28 0 50 5 50 10 0 6
11 10 25 10 16 0 25 6 25 15 0 12 14 15 65 15 51 0 65 3 65 15 0 12 14 15 65
15 37 0 65 4 65 10 0 6 50 10 130 10 109 0 130 2 130 15 0 13 30 15 210 15
180 0 210 -2 210 -15 0 -12 18 -15 105 -15 63 0 105 -4 105 -10 0 -5 -11 -10
-25 -10 -16 0 -25 -6 -25 -15 0 -8 -7 -15 -15 -15 -8 0 -15 -7 -15 -15 0 -8
-7 -15 -15 -15 -8 0 -15 -4 -15 -10 0 -5 -11 -10 -25 -10 -14 0 -25 -5 -25
-11 0 -19 -28 -39 -54 -39 -16 0 -26 -6 -26 -15 0 -8 -4 -15 -10 -15 -5 0 -10
-7 -10 -15 0 -8 -7 -15 -15 -15 -8 0 -15 -4 -15 -10 0 -5 -11 -10 -25 -10 -16
0 -25 -6 -25 -15 0 -8 -7 -15 -15 -15 -8 0 -15 -4 -15 -10 0 -5 -11 -10 -25
-10 -16 0 -25 -6 -25 -15 0 -9 -9 -15 -25 -15 -16 0 -25 -6 -25 -15 0 -8 -7
-15 -15 -15 -8 0 -15 -4 -15 -10 0 -5 -11 -10 -25 -10 -14 0 -25 -5 -25 -11 0
-19 -28 -39 -54 -39 -16 0 -26 -6 -26 -15 0 -8 -4 -15 -10 -15 -5 0 -10 -7
-10 -15 0 -9 -9 -15 -25 -15 -14 0 -25 -4 -25 -10 0 -5 -13 -10 -30 -10 -16 0
-30 -5 -30 -11 0 -17 -27 -39 -49 -39 -12 0 -21 -6 -21 -15 0 -10 -10 -15 -30
-15 -20 0 -30 -5 -30 -15 0 -9 -9 -15 -21 -15 -22 0 -49 -22 -49 -39 0 -6 -12
-11 -26 -11 -26 0 -54 -20 -54 -39 0 -6 -13 -11 -30 -11 -20 0 -30 -5 -30 -15
0 -9 -9 -15 -21 -15 -22 0 -49 -22 -49 -39 0 -6 -7 -11 -15 -11 -8 0 -15 -4
-15 -10 0 -5 -7 -10 -15 -10 -11 0 -15 -11 -15 -40 0 -22 -4 -40 -10 -40 -5 0
-10 -7 -10 -15 0 -8 -7 -15 -15 -15 -9 0 -15 -9 -15 -25 0 -14 -4 -25 -10 -25
-5 0 -10 -7 -10 -15 0 -8 -7 -15 -15 -15 -9 0 -15 -9 -15 -25 0 -16 -6 -25
-15 -25 -8 0 -15 -5 -15 -11 0 -6 -6 -17 -14 -25 -8 -8 -19 -14 -25 -14 -6 0
-11 -11 -11 -25 0 -14 -4 -25 -10 -25 -5 0 -10 -7 -10 -15 0 -8 -7 -15 -15
-15 -8 0 -15 -7 -15 -15 0 -8 -7 -15 -15 -15 -9 0 -15 -9 -15 -21 0 -22 -22
-49 -39 -49 -6 0 -11 -7 -11 -15 0 -8 -4 -15 -10 -15 -5 0 -10 -7 -10 -15 0
-8 -7 -15 -15 -15 -8 0 -15 -4 -15 -10 0 -5 -7 -10 -15 -10 -8 0 -15 -5 -15
-11 0 -14 -25 -39 -39 -39 -6 0 -11 -7 -11 -15 0 -8 -4 -15 -10 -15 -5 0 -10
-7 -10 -15 0 -9 -10 -15 -26 -15 -26 0 -54 -20 -54 -39 0 -6 -7 -11 -15 -11
-8 0 -15 -4 -15 -10 0 -5 -11 -10 -25 -10 -16 0 -25 -6 -25 -15 0 -8 -7 -15
-15 -15 -8 0 -15 -7 -15 -15 0 -9 -9 -15 -25 -15 -14 0 -25 -4 -25 -10 0 -5
-11 -10 -25 -10 -16 0 -25 -6 -25 -15 0 -9 -9 -15 -25 -15 -14 0 -25 -4 -25
-10 0 -5 -11 -10 -25 -10 -14 0 -25 5 -25 10 0 6 -7 10 -15 10 -8 0 -15 7 -15
15 0 8 -7 15 -15 15 -8 0 -15 5 -15 10 0 6 -11 10 -25 10 -16 0 -25 6 -25 15
0 12 -17 15 -90 15 -73 0 -90 -3 -90 -15 0 -11 -11 -15 -40 -15 -22 0 -40 -4
-40 -10 0 -5 -11 -10 -25 -10 -16 0 -25 -6 -25 -15 0 -9 -9 -15 -25 -15 -14 0
-25 -4 -25 -10 0 -5 -11 -10 -25 -10 -16 0 -25 -6 -25 -15 0 -10 -10 -15 -30
-15 -20 0 -30 -5 -30 -15 0 -9 -9 -15 -25 -15 -14 0 -25 -4 -25 -10 0 -5 -11
-10 -25 -10 -16 0 -25 -6 -25 -15 0 -9 -9 -15 -25 -15 -16 0 -25 -6 -25 -15 0
-9 -9 -15 -25 -15 -14 0 -25 -4 -25 -10 0 -5 -13 -10 -30 -10 -20 0 -30 -5
-30 -15 0 -10 -11 -15 -35 -15 -19 0 -35 -4 -35 -10 0 -5 -7 -10 -15 -10 -8 0
-15 5 -15 10 0 6 -7 10 -15 10 -9 0 -15 9 -15 25 0 20 -5 25 -25 25 -16 0 -25
6 -25 15 0 11 -12 15 -50 15 -38 0 -50 -4 -50 -15 0 -9 -10 -15 -26 -15 -26 0
-54 -20 -54 -39 0 -6 -5 -11 -11 -11 -14 0 -39 -25 -39 -39 0 -6 -7 -11 -15
-11 -8 0 -15 -7 -15 -15 0 -8 -5 -15 -11 -15 -14 0 -39 -25 -39 -39 0 -6 -7
-11 -15 -11 -8 0 -15 -4 -15 -10 0 -5 -16 -10 -36 -10 -35 0 -64 18 -64 39 0
6 -11 11 -25 11 -14 0 -25 5 -25 10 0 6 -7 10 -15 10 -8 0 -15 7 -15 15 0 9
-9 15 -25 15 -16 0 -25 6 -25 15 0 9 -9 15 -25 15 -14 0 -25 5 -25 10 0 6 -7
10 -15 10 -8 0 -15 7 -15 15 0 9 -9 15 -25 15 -14 0 -25 5 -25 10 0 6 -7 10
-15 10 -8 0 -15 7 -15 15 0 9 -9 15 -25 15 -16 0 -25 6 -25 15 0 8 -7 15 -15
15 -8 0 -15 5 -15 10 0 6 -11 10 -25 10 -16 0 -25 6 -25 15 0 9 -9 15 -25 15
-16 0 -25 6 -25 15 0 9 -9 15 -25 15 -14 0 -25 5 -25 10 0 6 -11 10 -25 10
-16 0 -25 6 -25 15 0 11 -11 15 -40 15 -29 0 -40 -4 -40 -15 0 -9 -9 -15 -25
-15 -14 0 -25 -4 -25 -10 0 -6 -28 -10 -65 -10 -37 0 -65 4 -65 10 0 6 -13 10
-30 10 -20 0 -30 5 -30 15 0 10 -11 15 -35 15 -19 0 -35 5 -35 10 0 6 -13 10
-30 10 -20 0 -30 5 -30 15 0 9 -9 15 -25 15 -16 0 -25 6 -25 15 0 9 -9 15 -25
15 -14 0 -25 5 -25 10 0 6 -11 10 -25 10 -16 0 -25 6 -25 15 0 9 -9 15 -25 15
-14 0 -25 5 -25 10 0 6 -7 10 -15 10 -8 0 -15 7 -15 15 0 9 -9 15 -25 15 -16
0 -25 6 -25 15 0 8 -5 15 -11 15 -14 0 -39 25 -39 39 0 6 -13 11 -30 11 -25 0
-30 4 -30 25 0 14 -4 25 -10 25 -5 0 -10 11 -10 25 0 16 -6 25 -15 25 -8 0
-15 7 -15 15 0 8 -4 15 -10 15 -5 0 -10 18 -10 40 0 29 -4 40 -15 40 -9 0 -15
9 -15 25 0 14 -5 25 -11 25 -21 0 -39 29 -39 64 0 25 -4 36 -15 36 -11 0 -15
11 -15 40 0 29 4 40 15 40 8 0 15 7 15 15 0 11 11 15 40 15 22 0 40 5 40 10 0
6 16 10 35 10 24 0 35 5 35 15 0 11 11 15 40 15 29 0 40 4 40 15 0 11 11 15
40 15 22 0 40 5 40 10 0 6 23 10 50 10 38 0 50 4 50 15 0 12 16 15 80 15 47 0
80 4 80 10 0 6 45 10 115 10 96 0 115 3 115 15 0 13 32 15 225 15 193 0 225 2
225 15 0 13 44 15 335 15 291 0 335 -2 335 -15 0 -13 32 -15 225 -15 193 0
225 -2 225 -15 0 -13 24 -15 155 -15 97 0 155 -4 155 -10 0 -6 37 -10 90 -10
73 0 90 -3 90 -15 0 -12 19 -15 115 -15 70 0 115 -4 115 -10 0 -6 28 -10 65
-10 37 0 65 4 65 10 0 6 7 10 15 10 12 0 15 16 15 80 0 64 3 80 15 80 12 0 15
15 15 75 0 43 4 75 10 75 6 0 10 28 10 65 0 63 -1 65 -25 65 -16 0 -25 6 -25
15 0 9 -9 15 -25 15 -16 0 -25 -6 -25 -15 0 -9 -9 -15 -25 -15 -20 0 -25 -5
-25 -25 0 -16 -6 -25 -15 -25 -9 0 -15 -9 -15 -25 0 -16 -6 -25 -15 -25 -8 0
-15 -7 -15 -15 0 -9 -9 -15 -25 -15 -24 0 -25 2 -25 65 0 51 3 65 15 65 12 0
15 18 15 105 0 63 4 105 10 105 6 0 10 37 10 90 0 53 -4 90 -10 90 -5 0 -10
18 -10 40 0 29 -4 40 -15 40 -8 0 -15 7 -15 15 0 8 -4 15 -10 15 -5 0 -10 7
-10 15 0 12 -16 15 -80 15 -64 0 -80 -3 -80 -15 0 -11 -11 -15 -40 -15 -29 0
-40 -4 -40 -15 0 -9 -9 -15 -25 -15 -14 0 -25 -4 -25 -10 0 -5 -11 -10 -25
-10 -16 0 -25 -6 -25 -15 0 -11 -11 -15 -40 -15 -29 0 -40 -4 -40 -15 0 -8 -7
-15 -15 -15 -8 0 -15 -4 -15 -10 0 -5 -11 -10 -25 -10 -16 0 -25 -6 -25 -15 0
-9 -9 -15 -25 -15 -14 0 -25 -4 -25 -10 0 -5 -11 -10 -25 -10 -16 0 -25 -6
-25 -15 0 -8 -7 -15 -15 -15 -8 0 -15 -7 -15 -15 0 -9 -9 -15 -25 -15 -14 0
-25 -4 -25 -10 0 -5 -7 -10 -15 -10 -8 0 -15 -5 -15 -11 0 -14 -25 -39 -39
-39 -6 0 -11 -7 -11 -15 0 -8 -4 -15 -10 -15 -5 0 -10 -11 -10 -25 0 -16 -6
-25 -15 -25 -11 0 -15 -11 -15 -40 0 -29 -4 -40 -15 -40 -11 0 -15 -11 -15
-40 l0 -40 -465 0 c-407 0 -465 2 -465 15 0 13 -43 15 -325 15 -210 0 -325 4
-325 10 0 6 -7 10 -15 10 -8 0 -15 7 -15 15 0 8 -7 15 -15 15 -9 0 -15 9 -15
25 0 14 -4 25 -10 25 -5 0 -10 7 -10 15 0 8 -5 15 -11 15 -14 0 -39 25 -39 39
0 6 -7 11 -15 11 -9 0 -15 9 -15 25 0 16 -6 25 -15 25 -8 0 -15 6 -15 14 0 8
-6 17 -12 20 -10 5 -10 7 0 12 6 3 12 12 12 20 0 8 7 14 15 14 11 0 15 12 15
50 0 38 4 50 15 50 12 0 15 14 15 70 0 40 4 70 10 70 6 0 10 28 10 65 0 51 3
65 15 65 12 0 15 14 15 65 0 37 4 65 10 65 6 0 10 28 10 65 0 51 3 65 15 65
10 0 15 11 15 35 0 24 5 35 15 35 11 0 15 11 15 40 0 22 5 40 10 40 6 0 10 11
10 25 0 16 6 25 15 25 8 0 15 7 15 15 0 8 5 15 10 15 6 0 10 7 10 15 0 8 7 15
15 15 9 0 15 9 15 25 0 14 5 25 11 25 14 0 39 25 39 39 0 6 7 11 15 11 8 0 15
7 15 15 0 9 9 15 25 15 14 0 25 5 25 10 0 6 7 10 15 10 8 0 15 5 15 11 0 14
25 39 39 39 6 0 11 7 11 15 0 8 5 15 10 15 6 0 10 7 10 15 0 8 7 15 15 15 8 0
15 5 15 10 0 6 7 10 15 10 8 0 15 7 15 15 0 9 9 15 25 15 14 0 25 5 25 11 0
14 25 39 39 39 6 0 11 7 11 15 0 9 9 15 25 15 14 0 25 5 25 10 0 6 7 10 15 10
8 0 15 7 15 15 0 8 5 15 10 15 6 0 10 7 10 15 0 9 10 15 26 15 26 0 54 20 54
39 0 6 11 11 25 11 14 0 25 5 25 10 0 6 7 10 15 10 8 0 15 7 15 15 0 9 9 15
25 15 16 0 25 6 25 15 0 8 7 15 15 15 8 0 15 5 15 10 0 6 11 10 25 10 16 0 25
6 25 15 0 8 7 15 15 15 8 0 15 5 15 10 0 6 11 10 25 10 16 0 25 6 25 15 0 8 5
15 10 15 6 0 10 7 10 15 0 12 13 15 55 15 42 0 55 -3 55 -15z m-1560 -1590 c0
-8 5 -15 10 -15 6 0 10 -11 10 -25 0 -16 6 -25 15 -25 8 0 15 -7 15 -15 0 -8
5 -15 11 -15 19 0 39 -28 39 -54 0 -14 5 -26 11 -26 14 0 39 -25 39 -39 0 -6
7 -11 15 -11 8 0 15 -4 15 -10 0 -5 7 -10 15 -10 9 0 15 -10 15 -26 0 -26 20
-54 39 -54 6 0 11 -5 11 -11 0 -14 25 -39 39 -39 6 0 11 -7 11 -15 0 -8 7 -15
15 -15 8 0 15 -5 15 -11 0 -14 25 -39 39 -39 6 0 11 -5 11 -11 0 -14 25 -39
39 -39 6 0 11 -7 11 -15 0 -11 -11 -15 -40 -15 -29 0 -40 -4 -40 -15 0 -12
-15 -15 -75 -15 -43 0 -75 -4 -75 -10 0 -5 -25 -10 -55 -10 -42 0 -55 -3 -55
-15 0 -11 -12 -15 -50 -15 -38 0 -50 4 -50 15 0 8 -7 15 -15 15 -9 0 -15 9
-15 25 0 14 -4 25 -10 25 -5 0 -10 11 -10 25 0 16 -6 25 -15 25 -8 0 -15 7
-15 15 0 8 -7 15 -15 15 -11 0 -15 11 -15 40 0 22 -4 40 -10 40 -5 0 -10 11
-10 25 0 16 -6 25 -15 25 -11 0 -15 11 -15 40 0 29 4 40 15 40 10 0 15 11 15
35 0 19 5 35 10 35 6 0 10 14 10 30 0 20 5 30 15 30 9 0 15 9 15 25 0 16 6 25
15 25 9 0 15 9 15 25 0 14 5 25 10 25 6 0 10 7 10 15 0 8 7 15 15 15 8 0 15
-7 15 -15z m2780 -40 c0 -30 -4 -55 -10 -55 -6 0 -10 -32 -10 -75 0 -60 -3
-75 -15 -75 -12 0 -15 -14 -15 -65 0 -51 -3 -65 -15 -65 -12 0 -15 -13 -15
-55 0 -30 -4 -55 -10 -55 -5 0 -10 -11 -10 -25 0 -25 -1 -25 -90 -25 -73 0
-90 3 -90 15 0 13 -23 15 -145 15 l-145 0 0 65 c0 51 3 65 15 65 11 0 15 12
15 50 0 28 5 50 10 50 6 0 10 7 10 15 0 8 5 15 11 15 14 0 39 25 39 39 0 6 7
11 15 11 8 0 15 5 15 10 0 6 11 10 25 10 16 0 25 6 25 15 0 8 7 15 15 15 8 0
15 7 15 15 0 9 9 15 25 15 14 0 25 5 25 10 0 6 11 10 25 10 16 0 25 6 25 15 0
9 9 15 25 15 14 0 25 5 25 10 0 6 18 10 40 10 29 0 40 4 40 15 0 9 9 15 25 15
16 0 25 6 25 15 0 11 11 15 40 15 l40 0 0 -55z m1750 -506 c0 -6 6 -17 14 -25
8 -8 19 -14 25 -14 6 0 11 -11 11 -25 l0 -25 -120 0 c-73 0 -120 4 -120 10 0
6 7 10 15 10 8 0 15 7 15 15 0 9 9 15 25 15 14 0 25 5 25 10 0 6 11 10 25 10
16 0 25 6 25 15 0 10 10 15 30 15 17 0 30 -5 30 -11z m0 -289 c0 -6 32 -10 75
-10 60 0 75 -3 75 -15 0 -11 11 -15 40 -15 29 0 40 -4 40 -15 0 -11 11 -15 40
-15 22 0 40 -4 40 -10 0 -5 11 -10 25 -10 16 0 25 -6 25 -15 0 -9 9 -15 25
-15 14 0 25 -4 25 -10 0 -5 11 -10 25 -10 16 0 25 -6 25 -15 0 -8 7 -15 15
-15 8 0 15 -7 15 -15 0 -9 9 -15 25 -15 14 0 25 -4 25 -10 0 -5 7 -10 15 -10
8 0 15 -5 15 -11 0 -14 25 -39 39 -39 6 0 11 -7 11 -15 0 -9 9 -15 25 -15 16
0 25 -6 25 -15 0 -8 5 -15 11 -15 14 0 39 -25 39 -39 0 -6 7 -11 15 -11 8 0
15 -4 15 -10 0 -5 7 -10 15 -10 8 0 15 -7 15 -15 0 -8 5 -15 10 -15 6 0 10 -7
10 -15 0 -8 5 -15 11 -15 14 0 39 -25 39 -39 0 -6 7 -11 15 -11 8 0 15 -4 15
-10 0 -5 7 -10 15 -10 8 0 15 -7 15 -15 0 -8 5 -15 10 -15 6 0 10 -7 10 -15 0
-8 5 -15 11 -15 14 0 39 -25 39 -39 0 -6 7 -11 15 -11 8 0 15 -4 15 -10 0 -5
7 -10 15 -10 8 0 15 -7 15 -15 0 -8 5 -15 10 -15 6 0 10 -7 10 -15 0 -8 7 -15
15 -15 9 0 15 -9 15 -25 0 -14 5 -25 10 -25 6 0 10 -11 10 -25 0 -16 6 -25 15
-25 9 0 15 -9 15 -25 0 -16 6 -25 15 -25 10 0 15 -10 15 -30 0 -16 5 -30 10
-30 6 0 10 -11 10 -25 0 -16 6 -25 15 -25 11 0 15 -11 15 -40 0 -22 5 -40 10
-40 6 0 10 -16 10 -35 0 -24 5 -35 15 -35 8 0 15 -7 15 -15 0 -9 -9 -15 -25
-15 -16 0 -25 -6 -25 -15 0 -8 -7 -15 -15 -15 -8 0 -15 -4 -15 -10 0 -5 -11
-10 -25 -10 -16 0 -25 -6 -25 -15 0 -9 -9 -15 -25 -15 -14 0 -25 -4 -25 -10 0
-5 -11 -10 -25 -10 -16 0 -25 -6 -25 -15 0 -8 -7 -15 -15 -15 -8 0 -15 -7 -15
-15 0 -11 -11 -15 -40 -15 -22 0 -40 -4 -40 -10 0 -5 -11 -10 -25 -10 -16 0
-25 -6 -25 -15 0 -9 -9 -15 -25 -15 -14 0 -25 -4 -25 -10 0 -5 -18 -10 -40
-10 -29 0 -40 -4 -40 -15 0 -11 -11 -15 -40 -15 -29 0 -40 -4 -40 -15 0 -11
-12 -15 -50 -15 -27 0 -50 -4 -50 -10 0 -6 -28 -10 -65 -10 -51 0 -65 -3 -65
-15 0 -12 -18 -15 -105 -15 -63 0 -105 -4 -105 -10 0 -6 -62 -10 -166 -10
-176 0 -194 5 -194 49 0 12 -6 21 -15 21 -10 0 -15 10 -15 30 0 20 -5 30 -15
30 -10 0 -15 11 -15 35 0 19 -4 35 -10 35 -5 0 -10 14 -10 30 0 20 -5 30 -15
30 -10 0 -15 11 -15 35 0 19 -4 35 -10 35 -5 0 -10 7 -10 15 0 8 -7 15 -15 15
-8 0 -15 7 -15 15 0 8 -5 15 -11 15 -14 0 -39 25 -39 39 0 6 -5 11 -11 11 -14
0 -39 25 -39 39 0 6 -13 11 -30 11 -16 0 -30 5 -30 11 0 14 -25 39 -39 39 -6
0 -11 7 -11 15 0 8 -4 15 -10 15 -5 0 -10 11 -10 25 0 16 -6 25 -15 25 -8 0
-15 7 -15 15 0 8 -5 15 -11 15 -19 0 -39 28 -39 54 0 14 5 26 10 26 6 0 10 16
10 35 0 24 5 35 15 35 10 0 15 10 15 30 0 20 5 30 15 30 9 0 15 9 15 25 0 14
5 25 10 25 6 0 10 11 10 25 0 16 6 25 15 25 11 0 15 11 15 40 0 22 5 40 10 40
6 0 10 11 10 25 0 16 6 25 15 25 11 0 15 11 15 40 0 29 4 40 15 40 11 0 15 12
15 50 0 28 5 50 10 50 6 0 10 18 10 40 0 29 4 40 15 40 11 0 15 12 15 50 0 28
5 50 10 50 6 0 10 14 10 30 l0 30 95 0 c57 0 95 4 95 10 0 6 28 10 65 10 37 0
65 -4 65 -10z m-710 -1045 c0 -11 11 -15 40 -15 22 0 40 -4 40 -10 0 -5 7 -10
15 -10 8 0 15 -5 15 -11 0 -14 25 -39 39 -39 6 0 11 -7 11 -15 0 -8 7 -15 15
-15 8 0 15 -5 15 -11 0 -14 25 -39 39 -39 6 0 11 -5 11 -11 0 -14 25 -39 39
-39 6 0 11 -7 11 -15 0 -8 7 -15 15 -15 11 0 15 -11 15 -40 0 -22 5 -40 10
-40 6 0 10 -18 10 -40 0 -29 4 -40 15 -40 9 0 15 -9 15 -25 0 -14 5 -25 10
-25 6 0 10 -11 10 -25 0 -16 6 -25 15 -25 9 0 15 -9 15 -25 0 -16 6 -25 15
-25 9 0 15 -9 15 -25 0 -14 5 -25 10 -25 6 0 10 -7 10 -15 0 -8 7 -15 15 -15
8 0 15 -7 15 -15 0 -8 5 -15 10 -15 6 0 10 -11 10 -25 0 -16 6 -25 15 -25 8 0
15 -4 15 -10 0 -5 7 -10 15 -10 8 0 15 -7 15 -15 0 -8 5 -15 10 -15 6 0 10
-11 10 -25 0 -20 -5 -25 -25 -25 -16 0 -25 -6 -25 -15 0 -8 -7 -15 -15 -15 -8
0 -15 -5 -15 -11 0 -17 -27 -39 -49 -39 -12 0 -21 -6 -21 -15 0 -8 -7 -15 -15
-15 -8 0 -15 -4 -15 -10 0 -5 -7 -10 -15 -10 -8 0 -15 -7 -15 -15 0 -10 -11
-15 -35 -15 -24 0 -35 -5 -35 -15 0 -9 -10 -15 -26 -15 -26 0 -54 -20 -54 -39
0 -6 -18 -11 -40 -11 -22 0 -40 -4 -40 -10 0 -5 -11 -10 -25 -10 -16 0 -25 -6
-25 -15 0 -10 -10 -15 -30 -15 -20 0 -30 -5 -30 -15 0 -10 -11 -15 -35 -15
-19 0 -35 -4 -35 -10 0 -5 -18 -10 -40 -10 -29 0 -40 -4 -40 -15 0 -11 -11
-15 -40 -15 -22 0 -40 -4 -40 -10 0 -5 -18 -10 -40 -10 -29 0 -40 -4 -40 -15
0 -11 -12 -15 -50 -15 -38 0 -50 -4 -50 -15 0 -11 -11 -15 -40 -15 -22 0 -40
-4 -40 -10 0 -5 -22 -10 -50 -10 -38 0 -50 -4 -50 -15 0 -12 -13 -15 -55 -15
-30 0 -55 -4 -55 -10 0 -6 -28 -10 -65 -10 -51 0 -65 -3 -65 -15 0 -12 -14
-15 -65 -15 -51 0 -65 -3 -65 -15 0 -12 -14 -15 -65 -15 -37 0 -65 -4 -65 -10
0 -6 -45 -10 -115 -10 -96 0 -115 -3 -115 -15 0 -13 -28 -15 -195 -15 -167 0
-195 2 -195 15 0 13 -20 15 -120 15 -73 0 -120 4 -120 10 0 6 -28 10 -65 10
-51 0 -65 3 -65 15 0 11 -12 15 -50 15 -38 0 -50 4 -50 15 0 11 -11 15 -40 15
-22 0 -40 5 -40 10 0 6 -18 10 -40 10 -29 0 -40 4 -40 15 0 9 -9 15 -25 15
-14 0 -25 5 -25 10 0 6 -7 10 -15 10 -8 0 -15 7 -15 15 0 8 -4 15 -10 15 -5 0
-10 18 -10 40 0 29 -4 40 -15 40 -9 0 -15 9 -15 25 0 14 -4 25 -10 25 -5 0
-10 11 -10 25 0 16 -6 25 -15 25 -11 0 -15 11 -15 40 0 29 -4 40 -15 40 -9 0
-15 9 -15 25 0 16 6 25 15 25 8 0 15 7 15 15 0 8 5 15 11 15 14 0 39 25 39 39
0 6 11 11 25 11 16 0 25 6 25 15 0 8 7 15 15 15 8 0 15 5 15 10 0 6 7 10 15
10 8 0 15 7 15 15 0 8 5 15 10 15 6 0 10 7 10 15 0 8 7 15 15 15 8 0 15 5 15
10 0 6 28 10 65 10 37 0 65 -4 65 -10 0 -5 18 -10 40 -10 29 0 40 -4 40 -15 0
-11 11 -15 40 -15 29 0 40 -4 40 -15 0 -9 9 -15 25 -15 14 0 25 -4 25 -10 0
-5 18 -10 40 -10 29 0 40 -4 40 -15 0 -10 11 -15 35 -15 24 0 35 5 35 15 0 9
10 15 26 15 26 0 54 20 54 39 0 6 7 11 15 11 8 0 15 5 15 11 0 19 28 39 54 39
14 0 26 5 26 11 0 14 25 39 39 39 6 0 11 7 11 15 0 9 9 15 25 15 16 0 25 -6
25 -15 0 -8 5 -15 11 -15 14 0 39 -25 39 -39 0 -6 7 -11 15 -11 8 0 15 -4 15
-10 0 -5 -25 -10 -55 -10 -54 0 -55 0 -55 -30 0 -16 -4 -30 -10 -30 -5 0 -10
-18 -10 -40 l0 -40 -325 0 c-282 0 -325 2 -325 15 0 10 -10 15 -30 15 -16 0
-30 -5 -30 -11 0 -14 -25 -39 -39 -39 -7 0 -11 -23 -11 -55 0 -42 3 -55 15
-55 8 0 15 -4 15 -10 0 -5 11 -10 25 -10 16 0 25 -6 25 -15 0 -13 24 -15 155
-15 97 0 155 -4 155 -10 0 -6 82 -10 225 -10 l225 0 0 -40 c0 -22 5 -40 10
-40 6 0 10 -11 10 -25 0 -16 6 -25 15 -25 10 0 15 -10 15 -30 0 -16 5 -30 10
-30 6 0 10 -11 10 -25 0 -16 6 -25 15 -25 8 0 15 -4 15 -10 0 -5 11 -10 25
-10 16 0 25 -6 25 -15 0 -9 9 -15 25 -15 16 0 25 6 25 15 0 10 10 15 30 15 25
0 30 4 30 24 0 13 6 27 13 30 10 5 10 7 0 12 -7 3 -13 19 -13 35 0 19 -5 29
-15 29 -9 0 -15 9 -15 25 0 16 -6 25 -15 25 -9 0 -15 9 -15 25 0 14 -4 25 -10
25 -5 0 -10 11 -10 25 0 24 2 25 65 25 51 0 65 3 65 15 0 12 18 15 105 15 63
0 105 4 105 10 0 6 32 10 75 10 60 0 75 3 75 15 0 12 16 15 80 15 64 0 80 3
80 15 0 12 14 15 65 15 37 0 65 4 65 10 0 6 32 10 75 10 60 0 75 3 75 15 0 9
10 15 26 15 26 0 54 20 54 39 0 6 7 11 15 11 8 0 15 7 15 15 0 8 5 15 10 15 6
0 10 11 10 25 0 16 6 25 15 25 8 0 15 7 15 15 0 8 5 15 11 15 17 0 39 27 39
49 0 12 6 21 15 21 8 0 15 7 15 15 0 8 5 15 10 15 6 0 10 7 10 15 0 8 7 15 15
15 8 0 15 5 15 10 0 6 7 10 15 10 8 0 15 7 15 15 0 8 5 15 10 15 6 0 10 11 10
25 0 16 6 25 15 25 12 0 15 14 15 65 0 51 -3 65 -15 65 -8 0 -15 7 -15 15 0
12 -14 15 -65 15 -51 0 -65 -3 -65 -15 0 -8 -4 -15 -10 -15 -5 0 -10 -11 -10
-25 0 -16 -6 -25 -15 -25 -8 0 -15 -7 -15 -15 0 -8 -5 -15 -11 -15 -14 0 -39
-25 -39 -39 0 -6 -7 -11 -15 -11 -9 0 -15 -9 -15 -25 0 -14 -4 -25 -10 -25 -5
0 -10 -7 -10 -15 0 -8 -7 -15 -15 -15 -8 0 -15 -4 -15 -10 0 -5 -7 -10 -15
-10 -8 0 -15 -7 -15 -15 0 -8 -4 -15 -10 -15 -5 0 -10 -11 -10 -25 0 -16 -6
-25 -15 -25 -8 0 -15 -7 -15 -15 0 -11 -11 -15 -40 -15 -22 0 -40 -4 -40 -10
0 -6 -28 -10 -65 -10 -51 0 -65 -3 -65 -15 0 -12 -14 -15 -65 -15 -51 0 -65
-3 -65 -15 0 -12 -15 -15 -75 -15 -43 0 -75 -4 -75 -10 0 -6 -33 -10 -80 -10
-64 0 -80 -3 -80 -15 0 -12 -17 -15 -90 -15 -73 0 -90 -3 -90 -15 0 -12 -14
-15 -65 -15 l-65 0 0 55 c0 42 -3 55 -15 55 -8 0 -15 7 -15 15 0 8 7 15 15 15
8 0 15 5 15 10 0 6 18 10 40 10 29 0 40 4 40 15 0 9 9 15 25 15 14 0 25 5 25
10 0 6 18 10 40 10 29 0 40 4 40 15 0 9 9 15 25 15 16 0 25 6 25 15 0 11 11
15 40 15 22 0 40 5 40 10 0 6 11 10 25 10 16 0 25 6 25 15 0 11 11 15 40 15
22 0 40 5 40 10 0 6 11 10 25 10 16 0 25 6 25 15 0 11 11 15 40 15 29 0 40 4
40 15 0 9 9 15 25 15 14 0 25 5 25 10 0 6 11 10 25 10 16 0 25 6 25 15 0 11
11 15 40 15 22 0 40 5 40 10 0 6 18 10 40 10 29 0 40 4 40 15 0 9 9 15 25 15
16 0 25 6 25 15 0 11 11 15 40 15 22 0 40 5 40 10 0 6 11 10 25 10 16 0 25 6
25 15 0 11 11 15 40 15 22 0 40 5 40 10 0 6 11 10 25 10 16 0 25 6 25 15 0 8
7 15 15 15 8 0 15 5 15 11 0 6 6 17 14 25 8 8 19 14 25 14 6 0 11 11 11 25 0
14 5 25 10 25 6 0 10 14 10 30 0 20 5 30 15 30 9 0 15 9 15 25 0 16 6 25 15
25 9 0 15 9 15 25 0 14 5 25 10 25 6 0 10 -7 10 -15z m-3540 -100 c0 -11 11
-15 40 -15 29 0 40 -4 40 -15 0 -12 13 -15 55 -15 30 0 55 -4 55 -10 0 -5 11
-10 25 -10 16 0 25 -6 25 -15 0 -9 9 -15 25 -15 14 0 25 -4 25 -10 0 -5 7 -10
15 -10 8 0 15 -7 15 -15 0 -8 5 -15 10 -15 6 0 10 -7 10 -15 0 -8 5 -15 11
-15 14 0 39 -25 39 -39 0 -6 7 -11 15 -11 8 0 15 -4 15 -10 0 -5 7 -10 15 -10
8 0 15 -7 15 -15 0 -8 5 -15 10 -15 6 0 10 -11 10 -25 0 -16 6 -25 15 -25 8 0
15 -5 15 -11 0 -19 28 -39 54 -39 16 0 26 -6 26 -15 0 -8 5 -15 10 -15 6 0 10
-7 10 -15 0 -8 5 -15 11 -15 14 0 39 -25 39 -39 0 -6 7 -11 15 -11 8 0 15 -4
15 -10 0 -5 7 -10 15 -10 8 0 15 -7 15 -15 0 -8 5 -15 10 -15 6 0 10 -7 10
-15 0 -8 5 -15 11 -15 14 0 39 -25 39 -39 0 -6 7 -11 15 -11 8 0 15 -4 15 -10
0 -5 11 -10 25 -10 16 0 25 -6 25 -15 0 -8 7 -15 15 -15 8 0 15 -7 15 -15 0
-8 -7 -15 -15 -15 -8 0 -15 -4 -15 -10 0 -5 -4 -10 -10 -10 -5 0 -10 11 -10
25 0 16 -6 25 -15 25 -12 0 -15 -13 -15 -55 0 -32 -4 -55 -11 -55 -14 0 -39
-25 -39 -39 0 -6 -5 -11 -11 -11 -6 0 -17 -6 -25 -14 -8 -8 -14 -19 -14 -25 0
-6 -7 -11 -15 -11 -8 0 -15 -7 -15 -15 0 -8 -5 -15 -11 -15 -6 0 -17 -6 -25
-14 -8 -8 -14 -19 -14 -25 0 -6 -7 -11 -15 -11 -9 0 -15 -9 -15 -25 0 -14 -4
-25 -10 -25 -5 0 -10 -7 -10 -15 0 -8 -7 -15 -15 -15 -8 0 -15 -4 -15 -10 0
-5 -7 -10 -15 -10 -8 0 -15 -5 -15 -11 0 -14 -25 -39 -39 -39 -6 0 -11 -12
-11 -26 0 -26 -20 -54 -39 -54 -6 0 -11 -7 -11 -15 0 -8 -7 -15 -15 -15 -9 0
-15 -9 -15 -25 0 -14 -4 -25 -10 -25 -5 0 -10 -11 -10 -25 0 -16 -6 -25 -15
-25 -8 0 -15 -5 -15 -11 0 -28 -30 -39 -104 -39 -44 0 -76 4 -76 10 0 6 -11
10 -25 10 -20 0 -25 5 -25 25 0 14 5 25 10 25 6 0 10 18 10 40 0 29 4 40 15
40 9 0 15 9 15 25 0 16 -6 25 -15 25 -8 0 -15 7 -15 15 0 9 -9 15 -25 15 -16
0 -25 6 -25 15 0 9 -9 15 -25 15 -16 0 -25 -6 -25 -15 0 -9 -9 -15 -25 -15
-20 0 -25 -5 -25 -25 0 -16 -6 -25 -15 -25 -9 0 -15 -9 -15 -25 0 -14 -4 -25
-10 -25 -5 0 -10 -7 -10 -15 0 -8 -7 -15 -15 -15 -8 0 -15 7 -15 15 0 9 -9 15
-25 15 -14 0 -25 5 -25 10 0 6 -11 10 -25 10 -16 0 -25 6 -25 15 0 9 -10 15
-26 15 -14 0 -32 6 -40 14 -16 17 -19 66 -4 66 6 0 10 11 10 25 0 16 6 25 15
25 12 0 15 14 15 65 0 51 -3 65 -15 65 -8 0 -15 5 -15 10 0 6 -22 10 -50 10
-27 0 -50 -4 -50 -10 0 -5 -7 -10 -15 -10 -8 0 -15 -7 -15 -15 0 -8 -4 -15
-10 -15 -5 0 -10 -11 -10 -25 0 -16 -6 -25 -15 -25 -9 0 -15 -9 -15 -25 0 -20
-5 -25 -25 -25 -22 0 -25 4 -25 40 0 29 -4 40 -15 40 -10 0 -15 11 -15 35 0
19 -4 35 -10 35 -6 0 -10 28 -10 65 0 37 4 65 10 65 6 0 10 30 10 70 0 56 3
70 15 70 10 0 15 11 15 35 0 24 5 35 15 35 11 0 15 11 15 40 0 22 5 40 10 40
6 0 10 11 10 25 0 16 6 25 15 25 8 0 15 7 15 15 0 8 5 15 10 15 6 0 10 11 10
25 0 16 6 25 15 25 9 0 15 9 15 25 0 16 6 25 15 25 8 0 15 7 15 15 0 8 5 15
10 15 6 0 10 7 10 15 0 8 7 15 15 15 9 0 15 9 15 21 0 22 22 49 39 49 6 0 11
7 11 15 0 8 7 15 15 15 8 0 15 5 15 11 0 14 25 39 39 39 6 0 11 5 11 11 0 19
28 39 54 39 16 0 26 6 26 15 0 8 5 15 10 15 6 0 10 7 10 15 0 9 9 15 25 15 16
0 25 -6 25 -15z m5600 -220 c0 -14 5 -25 10 -25 6 0 10 -13 10 -30 0 -20 5
-30 15 -30 9 0 15 -9 15 -25 0 -16 6 -25 15 -25 13 0 15 -22 15 -140 0 -118
-2 -140 -15 -140 -10 0 -15 -10 -15 -30 0 -16 -5 -30 -11 -30 -14 0 -39 -25
-39 -39 0 -6 -7 -11 -15 -11 -8 0 -15 -7 -15 -15 0 -9 -9 -15 -25 -15 -14 0
-25 -4 -25 -10 0 -5 -7 -10 -15 -10 -8 0 -15 -7 -15 -15 0 -9 -9 -15 -25 -15
-14 0 -25 -4 -25 -10 0 -5 -11 -10 -25 -10 -16 0 -25 -6 -25 -15 0 -8 -7 -15
-15 -15 -12 0 -15 15 -15 76 0 91 -10 104 -75 104 -45 0 -75 -16 -75 -39 0 -6
-7 -11 -15 -11 -11 0 -15 -12 -15 -50 0 -27 -4 -50 -10 -50 -5 0 -10 -7 -10
-15 0 -8 -7 -15 -15 -15 -11 0 -15 -11 -15 -40 0 -29 -4 -40 -15 -40 -8 0 -15
-4 -15 -10 0 -6 -32 -10 -75 -10 -60 0 -75 -3 -75 -15 0 -12 -13 -15 -55 -15
-52 0 -55 1 -55 25 0 14 -4 25 -10 25 -5 0 -10 25 -10 55 0 42 -3 55 -15 55
-8 0 -15 5 -15 10 0 16 -119 12 -136 -4 -17 -17 -20 -166 -4 -166 6 0 10 -11
10 -25 0 -14 -4 -25 -10 -25 -5 0 -10 5 -10 10 0 6 -47 10 -120 10 -100 0
-120 3 -120 15 0 8 -4 15 -10 15 -5 0 -10 7 -10 15 0 8 -7 15 -15 15 -8 0 -15
5 -15 10 0 6 -7 10 -15 10 -11 0 -15 11 -15 40 0 29 4 40 15 40 11 0 15 11 15
40 0 29 4 40 15 40 12 0 15 17 15 90 0 73 -3 90 -15 90 -8 0 -15 7 -15 15 0 8
-7 15 -15 15 -8 0 -15 5 -15 10 0 6 47 10 120 10 100 0 120 3 120 15 0 12 18
15 105 15 87 0 105 3 105 15 0 11 12 15 50 15 28 0 50 5 50 10 0 6 23 10 50
10 38 0 50 4 50 15 0 12 13 15 55 15 30 0 55 5 55 10 0 6 11 10 25 10 16 0 25
6 25 15 0 11 11 15 40 15 29 0 40 4 40 15 0 9 9 15 25 15 14 0 25 5 25 10 0 6
18 10 40 10 22 0 40 5 40 11 0 19 28 39 54 39 16 0 26 6 26 15 0 10 11 15 35
15 24 0 35 5 35 15 0 8 7 15 15 15 8 0 15 5 15 10 0 6 11 10 25 10 16 0 25 6
25 15 0 8 7 15 15 15 9 0 15 -9 15 -25z m-1330 -1710 c0 -8 7 -15 15 -15 12 0
15 -17 15 -90 0 -73 -3 -90 -15 -90 -9 0 -15 -9 -15 -25 0 -14 -4 -25 -10 -25
-5 0 -10 -7 -10 -15 0 -10 -10 -15 -30 -15 -16 0 -30 -4 -30 -10 0 -5 -11 -10
-25 -10 -16 0 -25 -6 -25 -15 0 -11 -12 -15 -50 -15 -38 0 -50 -4 -50 -15 0
-12 -13 -15 -55 -15 -30 0 -55 -4 -55 -10 0 -6 -28 -10 -65 -10 -51 0 -65 -3
-65 -15 0 -12 -18 -15 -105 -15 -63 0 -105 -4 -105 -10 0 -6 -37 -10 -90 -10
-53 0 -90 4 -90 10 0 6 -37 10 -90 10 -73 0 -90 3 -90 15 0 9 -9 15 -25 15
-14 0 -25 5 -25 10 0 6 -7 10 -15 10 -10 0 -15 10 -15 30 0 17 -4 30 -10 30
-6 0 -10 28 -10 65 0 51 -3 65 -15 65 -10 0 -15 11 -15 35 l0 35 340 0 c296 0
340 2 340 15 0 11 11 15 40 15 29 0 40 4 40 15 0 10 11 15 35 15 19 0 35 5 35
10 0 6 55 10 145 10 122 0 145 2 145 15 0 9 9 15 25 15 16 0 25 -6 25 -15z
m-2860 -130 c0 -12 14 -15 65 -15 37 0 65 -4 65 -10 0 -6 28 -10 65 -10 51 0
65 -3 65 -15 0 -12 16 -15 80 -15 64 0 80 -3 80 -15 0 -12 14 -15 65 -15 51 0
65 3 65 15 0 10 11 15 35 15 24 0 35 5 35 15 0 11 11 15 40 15 22 0 40 5 40
10 0 6 28 10 65 10 l65 0 0 -101 c0 -99 -9 -129 -39 -129 -6 0 -11 -7 -11 -15
0 -9 -9 -15 -25 -15 -14 0 -25 -4 -25 -10 0 -5 -11 -10 -25 -10 -16 0 -25 -6
-25 -15 0 -11 -11 -15 -40 -15 -29 0 -40 -4 -40 -15 0 -12 -14 -15 -65 -15
-37 0 -65 -4 -65 -10 0 -6 -72 -10 -195 -10 -123 0 -195 4 -195 10 0 6 -38 10
-95 10 -78 0 -95 3 -95 15 0 10 -11 15 -35 15 -24 0 -35 5 -35 15 0 9 -10 15
-26 15 -26 0 -54 20 -54 39 0 6 -7 11 -15 11 -9 0 -15 9 -15 25 0 14 -4 25
-10 25 -5 0 -10 18 -10 40 0 29 -4 40 -15 40 -12 0 -15 14 -15 65 l0 65 170 0
c144 0 170 -2 170 -15z"/>
<path d="M4950 7500 c0 -5 -7 -10 -15 -10 -8 0 -15 -7 -15 -15 0 -8 -4 -15
-10 -15 -5 0 -10 -11 -10 -25 0 -16 -6 -25 -15 -25 -9 0 -15 -9 -15 -25 0 -16
-6 -25 -15 -25 -8 0 -15 -7 -15 -15 0 -8 7 -15 15 -15 12 0 15 -13 15 -55 0
-32 4 -55 11 -55 14 0 39 -25 39 -39 0 -6 11 -11 25 -11 14 0 25 -4 25 -10 0
-15 57 -12 64 3 5 10 7 10 12 0 7 -15 54 -17 54 -3 0 6 14 10 30 10 17 0 30 5
30 11 0 14 25 39 39 39 6 0 11 7 11 15 0 8 5 15 10 15 6 0 10 42 10 105 0 63
-4 105 -10 105 -5 0 -10 7 -10 15 0 8 -7 15 -15 15 -8 0 -15 5 -15 10 0 6 -45
10 -115 10 -70 0 -115 -4 -115 -10z"/>
<path d="M5470 7345 c0 -8 -7 -15 -15 -15 -8 0 -15 -7 -15 -15 0 -8 -4 -15
-10 -15 -5 0 -10 -11 -10 -25 0 -16 -6 -25 -15 -25 -8 0 -15 -7 -15 -15 0 -8
-7 -15 -15 -15 -10 0 -15 -11 -15 -35 0 -19 -4 -35 -10 -35 -6 0 -10 -38 -10
-95 0 -57 4 -95 10 -95 6 0 10 -16 10 -35 0 -24 5 -35 15 -35 8 0 15 -7 15
-15 0 -8 7 -15 15 -15 8 0 15 -5 15 -11 0 -14 25 -39 39 -39 6 0 11 -7 11 -15
0 -12 18 -15 105 -15 87 0 105 3 105 15 0 9 9 15 21 15 28 0 49 23 49 54 0 16
6 26 15 26 12 0 15 14 15 65 0 51 -3 65 -15 65 -9 0 -15 9 -15 25 0 14 -4 25
-10 25 -5 0 -10 18 -10 40 0 29 -4 40 -15 40 -10 0 -15 11 -15 35 0 19 -4 35
-10 35 -5 0 -10 14 -10 30 0 20 -5 30 -15 30 -9 0 -15 9 -15 25 0 20 -5 25
-25 25 -16 0 -25 6 -25 15 0 12 -14 15 -65 15 -51 0 -65 -3 -65 -15z"/>
<path d="M3880 7055 c0 -8 -5 -15 -11 -15 -14 0 -39 -25 -39 -39 0 -6 -7 -11
-15 -11 -9 0 -15 -9 -15 -25 0 -14 -4 -25 -10 -25 -5 0 -10 -11 -10 -25 0 -16
-6 -25 -15 -25 -8 0 -15 -7 -15 -15 0 -8 -7 -15 -15 -15 -11 0 -15 -12 -15
-50 0 -27 -4 -50 -10 -50 -6 0 -10 -50 -10 -130 0 -80 4 -130 10 -130 6 0 10
-13 10 -30 0 -20 5 -30 15 -30 8 0 15 -4 15 -10 0 -5 7 -10 15 -10 8 0 15 -5
15 -11 0 -21 29 -39 64 -39 25 0 36 -4 36 -15 0 -9 9 -15 25 -15 16 0 25 -6
25 -15 0 -8 7 -15 15 -15 11 0 15 -11 15 -36 0 -35 18 -64 39 -64 6 0 11 -11
11 -25 0 -16 6 -25 15 -25 8 0 15 -7 15 -15 0 -9 9 -15 25 -15 16 0 25 -6 25
-15 0 -8 7 -15 15 -15 8 0 15 -4 15 -10 0 -6 37 -10 90 -10 53 0 90 4 90 10 0
6 18 10 40 10 29 0 40 4 40 15 0 8 5 15 10 15 6 0 10 7 10 15 0 9 9 15 25 15
14 0 25 5 25 10 0 6 7 10 15 10 8 0 15 7 15 15 0 8 7 15 15 15 9 0 15 9 15 25
0 14 5 25 10 25 6 0 10 11 10 25 0 16 6 25 15 25 10 0 15 10 15 30 0 17 5 30
10 30 17 0 13 169 -4 186 -11 11 -48 14 -165 14 -94 0 -151 -4 -151 -10 0 -6
-38 -10 -95 -10 -78 0 -95 -3 -95 -15 0 -12 -14 -15 -65 -15 -40 0 -65 4 -65
11 0 14 -25 39 -39 39 -7 0 -11 25 -11 65 0 51 3 65 15 65 11 0 15 11 15 40 0
22 5 40 10 40 6 0 10 11 10 25 0 16 6 25 15 25 9 0 15 10 15 26 0 26 20 54 39
54 6 0 11 7 11 15 0 8 7 15 15 15 11 0 15 11 15 40 0 29 -4 40 -15 40 -8 0
-15 5 -15 10 0 6 -7 10 -15 10 -8 0 -15 7 -15 15 0 11 -12 15 -50 15 -38 0
-50 -4 -50 -15z"/>
<path d="M3260 6845 c0 -8 -7 -15 -15 -15 -13 0 -15 -21 -15 -130 0 -109 2
-130 15 -130 11 0 15 -12 15 -50 0 -38 -4 -50 -15 -50 -8 0 -15 7 -15 15 0 9
-9 15 -25 15 -14 0 -25 5 -25 10 0 6 -18 10 -40 10 -29 0 -40 4 -40 15 0 11
-11 15 -40 15 -22 0 -40 5 -40 10 0 6 -18 10 -40 10 -29 0 -40 4 -40 15 0 9
-9 15 -25 15 -16 0 -25 -6 -25 -15 0 -9 -9 -15 -25 -15 -20 0 -25 -5 -25 -25
0 -16 -6 -25 -15 -25 -12 0 -15 -14 -15 -65 0 -37 -4 -65 -10 -65 -6 0 -10
-28 -10 -65 0 -37 4 -65 10 -65 6 0 10 -18 10 -40 0 -29 4 -40 15 -40 8 0 15
-4 15 -10 0 -5 7 -10 15 -10 8 0 15 -7 15 -15 0 -8 5 -15 10 -15 6 0 10 -7 10
-15 0 -9 9 -15 25 -15 14 0 25 -4 25 -10 0 -6 33 -10 80 -10 47 0 80 4 80 10
0 6 11 10 25 10 16 0 25 6 25 15 0 9 9 15 25 15 20 0 25 5 25 25 0 16 6 25 15
25 9 0 15 9 15 25 0 16 6 25 15 25 8 0 15 7 15 15 0 8 5 15 10 15 6 0 10 7 10
15 0 11 11 15 40 15 22 0 40 5 40 10 0 6 7 10 15 10 8 0 15 7 15 15 0 8 5 15
10 15 6 0 10 11 10 25 0 16 6 25 15 25 13 0 15 21 15 130 0 109 -2 130 -15
130 -12 0 -15 15 -15 76 0 74 -11 104 -39 104 -6 0 -11 7 -11 15 0 11 -12 15
-50 15 -38 0 -50 -4 -50 -15z"/>
</g>
</svg>
